# xmcd CD database file
#
# Track frame offsets:
#	182
#	10555
#	29442
#	46970
#	63875
#	79655
#	91077
#	103102
#	116015
#	130307
#
# Disc length: 1907 seconds
#
# Revision: 4
# Processed by: cddbd v1.5.2PL0 Copyright (c) Steve Scherf et al.
# Submitted via: CDex 1.70beta2
#
DISCID=7307710a
DTITLE=Brentwood Music BMG Marketing - Inspirational Country and Bluegrass
DYEAR=1995
DGENRE=Country
TTITLE0=I Love You, Lord (1995 ) - America's 25 Favorite Praise and Worship Choruses Vol 1
TTITLE1=Runs In The Blood ( 1994 ) -  Ken Holloway
TTITLE2=He Loved Us To Death ( 1993 ) -  Ken Holloway
TTITLE3=By The Way Of The Son ( 1994 ) - Seneca
TTITLE4=Old Book New Page ( 1994 ) - Seneca
TTITLE5=I Saw The Light ( 1989 ) - Smoky Mountain Hymns
TTITLE6=Who Do You Know ( 1992 ) - Claire Lynch
TTITLE7=Lead Me On ( 1993 ) - Claire Lynch
TTITLE8=I Wasn't There ( 1994 ) - Doyle Lawson and Quicksilver
TTITLE9=Highway To Heaven ( 1994 ) - Doyle Lawson and Quicksilver
EXTD=more info - MillenniumMusicProjectFormat - SYNTAX=SongTitle{Subtitle}[miscInfo](Lyricist;Composer;Date,Artist,Location,State,Country) YEAR: 1995
EXTT0=
EXTT1=
EXTT2=
EXTT3=
EXTT4=
EXTT5=
EXTT6=
EXTT7=
EXTT8=
EXTT9=
PLAYORDER=
